<?xml version="1.0" encoding="UTF-8" standalone="no"?>
<svg
   xmlns:dc="http://purl.org/dc/elements/1.1/"
   xmlns:cc="http://creativecommons.org/ns#"
   xmlns:rdf="http://www.w3.org/1999/02/22-rdf-syntax-ns#"
   xmlns:svg="http://www.w3.org/2000/svg"
   xmlns="http://www.w3.org/2000/svg"
   width="64"
   height="64"
   viewBox="0 0 64.000001 64.000001"
   id="svg2"
   version="1.1">
  <defs
     id="defs4" />
  <metadata
     id="metadata7">
    <rdf:RDF>
      <cc:Work
         rdf:about="">
        <dc:format>image/svg+xml</dc:format>
        <dc:type
           rdf:resource="http://purl.org/dc/dcmitype/StillImage" />
        <dc:title></dc:title>
      </cc:Work>
    </rdf:RDF>
  </metadata>
  <g
     id="layer1"
     transform="translate(0,-988.36216)">
    <g
       id="g3372"
       transform="matrix(0.98423955,0,0,0.90852882,-199.29629,638.90604)">
      <g
         style="fill:#ffffff;stroke:#333333"
         transform="matrix(1,0,0,0.86666678,0,60.314911)"
         id="g3348">
        <path
           id="path3340"
           transform="matrix(1,0,0,1.153846,0,-69.594119)"
           d="m 235,387.36133 a 30,32.500004 0 0 0 -30,32.5 30,32.500004 0 0 0 30,32.5 30,32.500004 0 0 0 30,-32.5 30,32.500004 0 0 0 -30,-32.5 z m 0,8.66797 a 15,23.833336 0 0 1 15,23.83203 15,23.833336 0 0 1 -15,23.83398 15,23.833336 0 0 1 -15,-23.83398 15,23.833336 0 0 1 15,-23.83203 z"
           style="fill:none;fill-opacity:1;stroke:#b3b3b3;stroke-width:1.05749967;stroke-miterlimit:4;stroke-dasharray:none;stroke-opacity:1" />
        <path
           id="path3342"
           transform="matrix(1,0,0,1.153846,0,-69.594119)"
           d="m 242.5,391.69531 a 22.5,28.16667 0 0 0 -16.79297,9.46289 15,23.833336 0 0 1 9.29297,-5.1289 15,23.833336 0 0 1 15,23.83203 15,23.833336 0 0 1 -15,23.83398 15,23.833336 0 0 1 -9.37305,-5.25195 A 22.5,28.16667 0 0 0 242.5,448.0293 22.5,28.16667 0 0 0 265,419.86133 22.5,28.16667 0 0 0 242.5,391.69531 Z m -16.94727,9.66992 a 22.5,28.16667 0 0 0 -0.31445,0.43946 15,23.833336 0 0 1 0.31445,-0.43946 z m -5.42968,15.60157 a 22.5,28.16667 0 0 0 -0.0117,0.12304 15,23.833336 0 0 1 0.0117,-0.12304 z m -0.0684,4.80468 a 22.5,28.16667 0 0 0 0.0215,0.28125 15,23.833336 0 0 1 -0.0215,-0.28125 z"
           style="fill:none;fill-opacity:1;stroke:#b3b3b3;stroke-width:1.05749967;stroke-miterlimit:4;stroke-dasharray:none;stroke-opacity:1" />
      </g>
    </g>
  </g>
</svg>
